<svg xmlns="http://www.w3.org/2000/svg" viewBox="0 0 128 128" height="128" width="128"><title>photography-picture-polaroid</title><g><path d="M118.88 15.24h6.08v103.64h-6.08Z" fill="#000000" stroke-width="4"></path><path d="M15.24 118.88h103.64v6.08H15.24Z" fill="#000000" stroke-width="4"></path><path d="M106.68 9.16h6.08v97.52h-6.08Z" fill="#000000" stroke-width="4"></path><path d="m94.48 57.92 -12.2 0 0 6.08 12.2 0 0 18.28 6.12 0 0 -60.92 -6.12 0 0 36.56z" fill="#000000" stroke-width="4"></path><path d="m82.28 76.2 -6.08 0 0 6.08 -54.84 0 0 6.12 73.12 0 0 -6.12 -12.2 0 0 -6.08z" fill="#000000" stroke-width="4"></path><path d="M76.2 64h6.08v6.12h-6.08Z" fill="#000000" stroke-width="4"></path><path d="M70.12 70.12h6.08v6.08h-6.08Z" fill="#000000" stroke-width="4"></path><path d="m70.12 51.8 12.16 0 0 -6.08 6.12 0 0 -12.2 -6.12 0 0 -6.08 -12.16 0 0 6.08 -6.12 0 0 12.2 6.12 0 0 6.08z" fill="#000000" stroke-width="4"></path><path d="M64 64h6.12v6.12H64Z" fill="#000000" stroke-width="4"></path><path d="M57.92 57.92H64V64h-6.08Z" fill="#000000" stroke-width="4"></path><path d="M51.84 51.8h6.08v6.12h-6.08Z" fill="#000000" stroke-width="4"></path><path d="M39.64 45.72h12.2v6.08H39.64Z" fill="#000000" stroke-width="4"></path><path d="M33.52 51.8h6.12v6.12H33.52Z" fill="#000000" stroke-width="4"></path><path d="M27.44 57.92h6.08V64H27.44Z" fill="#000000" stroke-width="4"></path><path d="M21.36 15.24h73.12v6.12H21.36Z" fill="#000000" stroke-width="4"></path><path d="m21.36 70.12 6.08 0 0 -6.12 -6.08 0 0 -42.64 -6.12 0 0 60.92 6.12 0 0 -12.16z" fill="#000000" stroke-width="4"></path><path d="M9.16 3.04h97.52v6.12H9.16Z" fill="#000000" stroke-width="4"></path><path d="M9.16 106.68h97.52v6.08H9.16Z" fill="#000000" stroke-width="4"></path><path d="M3.04 9.16h6.12v97.52H3.04Z" fill="#000000" stroke-width="4"></path></g></svg>